<svg width="16" height="21" viewBox="0 0 16 21" fill="none" xmlns="http://www.w3.org/2000/svg">
<path fill-rule="evenodd" clip-rule="evenodd" d="M7.56215 19.9373C7.95734 19.9373 15.0186 12.1494 15.0186 7.89846C15.0186 3.64754 11.6802 0.201492 7.56215 0.201492C3.44407 0.201492 0.105713 3.64754 0.105713 7.89846C0.105713 12.1494 7.16697 19.9373 7.56215 19.9373ZM7.56216 11.7482C9.65003 11.7482 11.3426 10.001 11.3426 7.84583C11.3426 5.69061 9.65003 3.94346 7.56216 3.94346C5.4743 3.94346 3.78175 5.69061 3.78175 7.84583C3.78175 10.001 5.4743 11.7482 7.56216 11.7482Z" fill="#0F2DC3"/>
<path fill-rule="evenodd" clip-rule="evenodd" d="M0.105713 7.89846C0.105713 12.1494 7.16697 19.9373 7.56215 19.9373V11.7482C5.47429 11.7481 3.78175 10.001 3.78175 7.84583C3.78175 5.69062 5.47429 3.94347 7.56215 3.94346V0.201492C3.44407 0.201492 0.105713 3.64754 0.105713 7.89846Z" fill="#0F2DC3"/>
</svg>
