<svg width="28" height="32" viewBox="0 0 28 32" fill="none" xmlns="http://www.w3.org/2000/svg">
<path d="M14.018 6C19.8493 6 23.7029 11.5685 21.2479 16.4669C19.8921 19.1739 18.0341 21.5893 16.0592 23.9323C15.5488 24.5378 15.0042 25.1189 14.4834 25.7175C14.1677 26.0809 13.8629 26.1006 13.5336 25.7366C10.9385 22.8646 8.49421 19.8941 6.76809 16.4872C4.27816 11.5721 8.14385 6 14.018 6ZM14.0058 17.184C16.3033 17.184 18.1602 15.4534 18.1513 13.3193C18.1428 11.2364 16.2623 9.54119 13.9681 9.54875C11.7183 9.55565 9.86926 11.2548 9.85144 13.3268C9.84816 13.8319 9.95315 14.3325 10.1604 14.8001C10.3676 15.2676 10.673 15.6928 11.059 16.0513C11.4451 16.4097 11.9041 16.6943 12.4098 16.8888C12.9155 17.0832 13.4579 17.1834 14.0058 17.184Z" fill="url(#paint0_linear_1499_292)"/>
<g filter="url(#filter0_f_1499_292)">
<path d="M14.018 6C19.8493 6 23.7029 11.5685 21.2479 16.4669C19.8921 19.1739 18.0341 21.5893 16.0592 23.9323C15.5488 24.5378 15.0042 25.1189 14.4834 25.7175C14.1677 26.0809 13.8629 26.1006 13.5336 25.7366C10.9385 22.8646 8.49421 19.8941 6.76809 16.4872C4.27816 11.5721 8.14385 6 14.018 6ZM14.0058 17.184C16.3033 17.184 18.1602 15.4534 18.1513 13.3193C18.1428 11.2364 16.2623 9.54119 13.9681 9.54875C11.7183 9.55565 9.86926 11.2548 9.85144 13.3268C9.84816 13.8319 9.95315 14.3325 10.1604 14.8001C10.3676 15.2676 10.673 15.6928 11.059 16.0513C11.4451 16.4097 11.9041 16.6943 12.4098 16.8888C12.9155 17.0832 13.4579 17.1834 14.0058 17.184Z" fill="url(#paint1_linear_1499_292)"/>
</g>
<defs>
<filter id="filter0_f_1499_292" x="0" y="0" width="28" height="32" filterUnits="userSpaceOnUse" color-interpolation-filters="sRGB">
<feFlood flood-opacity="0" result="BackgroundImageFix"/>
<feBlend mode="normal" in="SourceGraphic" in2="BackgroundImageFix" result="shape"/>
<feGaussianBlur stdDeviation="3" result="effect1_foregroundBlur_1499_292"/>
</filter>
<linearGradient id="paint0_linear_1499_292" x1="22" y1="24.6386" x2="6" y2="7.36138" gradientUnits="userSpaceOnUse">
<stop stop-color="#00B2C5"/>
<stop offset="1" stop-color="#00565F"/>
</linearGradient>
<linearGradient id="paint1_linear_1499_292" x1="22" y1="24.6386" x2="6" y2="7.36138" gradientUnits="userSpaceOnUse">
<stop stop-color="#00B2C5"/>
<stop offset="1" stop-color="#00565F"/>
</linearGradient>
</defs>
</svg>
