<svg width="16" height="20" viewBox="0 0 16 20" fill="none" xmlns="http://www.w3.org/2000/svg">
<path d="M8.01796 0C13.8493 0 17.7029 5.56853 15.2479 10.4669C13.8921 13.1739 12.0341 15.5893 10.0592 17.9323C9.54877 18.5378 9.00416 19.1189 8.48344 19.7175C8.16765 20.0809 7.86291 20.1006 7.53358 19.7366C4.93851 16.8646 2.49421 13.8941 0.768085 10.4872C-1.72184 5.57214 2.14385 0 8.01796 0ZM8.00584 11.184C10.3033 11.184 12.1602 9.45336 12.1513 7.31925C12.1428 5.23639 10.2623 3.54119 7.96806 3.54875C5.71835 3.55565 3.86926 5.25479 3.85144 7.3268C3.84816 7.83186 3.95315 8.33253 4.16038 8.80008C4.36762 9.26762 4.67302 9.69282 5.05904 10.0513C5.44507 10.4097 5.90411 10.6943 6.40981 10.8888C6.91551 11.0832 7.4579 11.1834 8.00584 11.184Z" fill="url(#paint0_linear_1140_43)"/>
<defs>
<linearGradient id="paint0_linear_1140_43" x1="16" y1="18.6386" x2="2.77376e-06" y2="1.36138" gradientUnits="userSpaceOnUse">
<stop stop-color="#00B2C5"/>
<stop offset="1" stop-color="#00565F"/>
</linearGradient>
</defs>
</svg>
