<svg width="23" height="30" viewBox="0 0 23 30" fill="none" xmlns="http://www.w3.org/2000/svg">
<g clip-path="url(#clip0_641_259)">
<path fill-rule="evenodd" clip-rule="evenodd" d="M10.5622 29.3143C10.9573 29.3143 18.0186 21.7697 18.0186 17.6516C18.0186 13.5336 14.6802 10.1952 10.5622 10.1952C6.44407 10.1952 3.10571 13.5336 3.10571 17.6516C3.10571 21.7697 10.167 29.3143 10.5622 29.3143ZM10.5622 21.3811C12.65 21.3811 14.3426 19.6885 14.3426 17.6006C14.3426 15.5128 12.65 13.8202 10.5622 13.8202C8.4743 13.8202 6.78175 15.5128 6.78175 17.6006C6.78175 19.6885 8.4743 21.3811 10.5622 21.3811Z" fill="#09090B"/>
<path fill-rule="evenodd" clip-rule="evenodd" d="M3.10571 17.6516C3.10571 21.7697 10.167 29.3143 10.5622 29.3143V21.3811C8.47429 21.381 6.78175 19.6885 6.78175 17.6006C6.78175 15.5128 8.47429 13.8202 10.5622 13.8202V10.1952C6.44407 10.1952 3.10571 13.5336 3.10571 17.6516Z" fill="#09090B"/>
</g>
<g filter="url(#filter0_d_641_259)">
<rect width="21" height="9" rx="4.5" fill="#F8FAFC"/>
<path d="M5.01 6L4.045 3.38H4.74L5.4 5.39L6.065 3.38H6.7L5.74 6H5.01ZM8.52613 6.05C8.3128 6.05 8.12113 6.015 7.95113 5.945C7.78113 5.87167 7.63613 5.77167 7.51613 5.645C7.39947 5.51833 7.30947 5.37333 7.24613 5.21C7.1828 5.04667 7.15113 4.875 7.15113 4.695C7.15113 4.51167 7.1828 4.33833 7.24613 4.175C7.30947 4.01167 7.39947 3.86667 7.51613 3.74C7.63613 3.61333 7.78113 3.515 7.95113 3.445C8.12113 3.37167 8.3128 3.335 8.52613 3.335C8.73947 3.335 8.92947 3.37167 9.09613 3.445C9.26613 3.515 9.41113 3.61333 9.53113 3.74C9.65113 3.86667 9.74113 4.01167 9.80113 4.175C9.86447 4.33833 9.89613 4.51167 9.89613 4.695C9.89613 4.875 9.86447 5.04667 9.80113 5.21C9.74113 5.37333 9.65113 5.51833 9.53113 5.645C9.41447 5.77167 9.27113 5.87167 9.10113 5.945C8.93113 6.015 8.73947 6.05 8.52613 6.05ZM7.84113 4.695C7.84113 4.84833 7.87113 4.985 7.93113 5.105C7.99113 5.22167 8.0728 5.31333 8.17613 5.38C8.27947 5.44667 8.39613 5.48 8.52613 5.48C8.6528 5.48 8.7678 5.44667 8.87113 5.38C8.97447 5.31 9.05613 5.21667 9.11613 5.1C9.17947 4.98 9.21113 4.84333 9.21113 4.69C9.21113 4.54 9.17947 4.405 9.11613 4.285C9.05613 4.165 8.97447 4.07167 8.87113 4.005C8.7678 3.93833 8.6528 3.905 8.52613 3.905C8.39613 3.905 8.27947 3.94 8.17613 4.01C8.0728 4.07667 7.99113 4.17 7.93113 4.29C7.87113 4.40667 7.84113 4.54167 7.84113 4.695ZM11.9184 6.05C11.705 6.05 11.5134 6.015 11.3434 5.945C11.1734 5.87167 11.0284 5.77167 10.9084 5.645C10.7884 5.515 10.695 5.36833 10.6284 5.205C10.565 5.04167 10.5334 4.87 10.5334 4.69C10.5334 4.44333 10.5884 4.21833 10.6984 4.015C10.8117 3.80833 10.9717 3.64333 11.1784 3.52C11.385 3.39667 11.63 3.335 11.9134 3.335C12.1967 3.335 12.44 3.39667 12.6434 3.52C12.8467 3.64333 12.9984 3.805 13.0984 4.005L12.4434 4.205C12.3867 4.10833 12.3117 4.035 12.2184 3.985C12.125 3.93167 12.0217 3.905 11.9084 3.905C11.7817 3.905 11.665 3.93833 11.5584 4.005C11.455 4.06833 11.3734 4.16 11.3134 4.28C11.2534 4.39667 11.2234 4.53333 11.2234 4.69C11.2234 4.84333 11.2534 4.98 11.3134 5.1C11.3767 5.21667 11.46 5.31 11.5634 5.38C11.6667 5.44667 11.7817 5.48 11.9084 5.48C11.9884 5.48 12.0634 5.46667 12.1334 5.44C12.2067 5.41333 12.2717 5.37667 12.3284 5.33C12.385 5.28333 12.4267 5.23 12.4534 5.17L13.1084 5.37C13.0484 5.5 12.96 5.61667 12.8434 5.72C12.73 5.82333 12.595 5.905 12.4384 5.965C12.285 6.02167 12.1117 6.05 11.9184 6.05ZM15.0612 6.05C14.8512 6.05 14.6612 6.015 14.4912 5.945C14.3212 5.87167 14.1762 5.77333 14.0562 5.65C13.9362 5.52333 13.8429 5.38 13.7762 5.22C13.7129 5.05667 13.6812 4.885 13.6812 4.705C13.6812 4.455 13.7362 4.22667 13.8462 4.02C13.9595 3.81333 14.1195 3.64833 14.3262 3.525C14.5362 3.39833 14.7829 3.335 15.0662 3.335C15.3529 3.335 15.5979 3.39833 15.8012 3.525C16.0045 3.64833 16.1595 3.81333 16.2662 4.02C16.3762 4.22333 16.4312 4.44333 16.4312 4.68C16.4312 4.72 16.4295 4.76167 16.4262 4.805C16.4229 4.845 16.4195 4.87833 16.4162 4.905H14.3912C14.4045 5.03833 14.4429 5.155 14.5062 5.255C14.5729 5.355 14.6562 5.43167 14.7562 5.485C14.8595 5.535 14.9695 5.56 15.0862 5.56C15.2195 5.56 15.3445 5.52833 15.4612 5.465C15.5812 5.39833 15.6629 5.31167 15.7062 5.205L16.2812 5.365C16.2179 5.49833 16.1262 5.61667 16.0062 5.72C15.8895 5.82333 15.7512 5.905 15.5912 5.965C15.4312 6.02167 15.2545 6.05 15.0612 6.05ZM14.3762 4.48H15.7462C15.7329 4.34667 15.6945 4.23167 15.6312 4.135C15.5712 4.035 15.4912 3.95833 15.3912 3.905C15.2912 3.84833 15.1795 3.82 15.0562 3.82C14.9362 3.82 14.8262 3.84833 14.7262 3.905C14.6295 3.95833 14.5495 4.035 14.4862 4.135C14.4262 4.23167 14.3895 4.34667 14.3762 4.48ZM14.2812 2.855L14.8112 2.35H15.2962L15.8262 2.855L15.4812 3.015L15.0562 2.7L14.6312 3.015L14.2812 2.855Z" fill="black"/>
</g>
<defs>
<filter id="filter0_d_641_259" x="0" y="0" width="23" height="11" filterUnits="userSpaceOnUse" color-interpolation-filters="sRGB">
<feFlood flood-opacity="0" result="BackgroundImageFix"/>
<feColorMatrix in="SourceAlpha" type="matrix" values="0 0 0 0 0 0 0 0 0 0 0 0 0 0 0 0 0 0 127 0" result="hardAlpha"/>
<feOffset dx="1" dy="1"/>
<feGaussianBlur stdDeviation="0.5"/>
<feComposite in2="hardAlpha" operator="out"/>
<feColorMatrix type="matrix" values="0 0 0 0 0 0 0 0 0 0 0 0 0 0 0 0 0 0 0.25 0"/>
<feBlend mode="normal" in2="BackgroundImageFix" result="effect1_dropShadow_641_259"/>
<feBlend mode="normal" in="SourceGraphic" in2="effect1_dropShadow_641_259" result="shape"/>
</filter>
<clipPath id="clip0_641_259">
<rect width="16" height="20" fill="white" transform="translate(3 10)"/>
</clipPath>
</defs>
</svg>
