<svg width="16" height="20" viewBox="0 0 16 20" fill="none" xmlns="http://www.w3.org/2000/svg">
<g clip-path="url(#clip0_490_34)">
<path fill-rule="evenodd" clip-rule="evenodd" d="M7.56212 19.3143C7.95731 19.3143 15.0186 11.7697 15.0186 7.65163C15.0186 3.53355 11.6802 0.19519 7.56212 0.19519C3.44404 0.19519 0.105682 3.53355 0.105682 7.65163C0.105682 11.7697 7.16694 19.3143 7.56212 19.3143ZM7.56213 11.3811C9.65 11.3811 11.3426 9.68851 11.3426 7.60064C11.3426 5.51277 9.65 3.82022 7.56213 3.82022C5.47427 3.82022 3.78172 5.51277 3.78172 7.60064C3.78172 9.68851 5.47427 11.3811 7.56213 11.3811Z" fill="url(#paint0_linear_490_34)"/>
<path fill-rule="evenodd" clip-rule="evenodd" d="M0.105682 7.65163C0.105682 11.7697 7.16694 19.3143 7.56212 19.3143V11.3811C5.47426 11.381 3.78172 9.6885 3.78172 7.60064C3.78172 5.51278 5.47426 3.82023 7.56212 3.82022V0.19519C3.44404 0.19519 0.105682 3.53355 0.105682 7.65163Z" fill="url(#paint1_linear_490_34)"/>
</g>
<defs>
<linearGradient id="paint0_linear_490_34" x1="7.56213" y1="0.19519" x2="7.56213" y2="19.3143" gradientUnits="userSpaceOnUse">
<stop stop-color="white"/>
<stop offset="0.0001" stop-color="#F0F0F0"/>
<stop offset="0.504808" stop-color="#AAAAAA"/>
<stop offset="1" stop-color="#999999"/>
</linearGradient>
<linearGradient id="paint1_linear_490_34" x1="3.8339" y1="0.19519" x2="3.8339" y2="19.3143" gradientUnits="userSpaceOnUse">
<stop stop-color="white"/>
<stop offset="0.0001" stop-color="#F0F0F0"/>
<stop offset="0.504808" stop-color="#AAAAAA"/>
<stop offset="1" stop-color="#999999"/>
</linearGradient>
<clipPath id="clip0_490_34">
<rect width="16" height="20" fill="white"/>
</clipPath>
</defs>
</svg>
