<svg width="16" height="21" viewBox="0 0 16 21" fill="none" xmlns="http://www.w3.org/2000/svg">
<g clip-path="url(#clip0_466_25)">
<path fill-rule="evenodd" clip-rule="evenodd" d="M7.56212 20.2922C7.95731 20.2922 15.0186 12.5042 15.0186 8.25329C15.0186 4.00237 11.6802 0.55632 7.56212 0.55632C3.44404 0.55632 0.105682 4.00237 0.105682 8.25329C0.105682 12.5042 7.16694 20.2922 7.56212 20.2922ZM7.56213 12.1031C9.65 12.1031 11.3426 10.3559 11.3426 8.20066C11.3426 6.04543 9.65 4.29829 7.56213 4.29829C5.47427 4.29829 3.78172 6.04543 3.78172 8.20066C3.78172 10.3559 5.47427 12.1031 7.56213 12.1031Z" fill="#FF69B4"/>
<path fill-rule="evenodd" clip-rule="evenodd" d="M0.105682 8.25329C0.105682 12.5042 7.16694 20.2922 7.56212 20.2922V12.1031C5.47426 12.103 3.78172 10.3559 3.78172 8.20066C3.78172 6.04544 5.47426 4.2983 7.56212 4.29829V0.55632C3.44404 0.55632 0.105682 4.00237 0.105682 8.25329Z" fill="#FF69B4"/>
</g>
<defs>
<clipPath id="clip0_466_25">
<rect width="16" height="20.6452" fill="white" transform="translate(-3.05176e-05 0.354836)"/>
</clipPath>
</defs>
</svg>
